# xmcd
#
# Track frame offsets:
#	182
#	12495
#	25060
#	34842
#	46400
#	58557
#	68600
#	79420
#	89535
#	100342
#	112345
#	122747
#	133105
#	143840
#
# Disc length: 2070 seconds
#
# Revision: 2
# Processed by: cddbd v1.5PL3 Copyright (c) Steve Scherf et al.
# Submitted via: audiograbber 1.82.01
#
DISCID=c708140e
DTITLE=Johnny Cash - 28 Great Songs CD2
DYEAR=1993
DGENRE=Country
TTITLE0=I Walk the Line
TTITLE1=Folsom Prison Blues
TTITLE2=Rock Island Line
TTITLE3=Big River
TTITLE4=You're the Nearest Thing to Heaven
TTITLE5=Get Rythm
TTITLE6=Could Could Heart
TTITLE7=I Could Never be Ashamed of You
TTITLE8=I Heard That Lonesome Whistle Blow
TTITLE9=Port of Lonely Hearts
TTITLE10=Strait as in Love
TTITLE11=There You Go
TTITLE12=Train of Love
TTITLE13=Thanks a Lot
EXTD=
EXTT0=
EXTT1=
EXTT2=
EXTT3=
EXTT4=
EXTT5=
EXTT6=
EXTT7=
EXTT8=
EXTT9=
EXTT10=
EXTT11=
EXTT12=
EXTT13=
PLAYORDER=
